<svg width="672" height="454" viewBox="0 0 672 454" fill="none" xmlns="http://www.w3.org/2000/svg">
  <g clip-path="url(#a)">
    <path d="M13.919 234.943h-.048a20.036 20.036 0 0 1-11.157-3.24 20.79 20.79 0 0 1-9.451-18.21L1.017 19.802A20.57 20.57 0 0 1 21.627 0h441.036a58.24 58.24 0 0 1 38.296 14.359l106.275 92.737a86.298 86.298 0 0 1 42.168 79.563c-.66 11.195-1.12 18.047-1.424 22.58a191.244 191.244 0 0 0-.568 21.251l.023 3.049-.503.001-633.011 1.403Z" fill="#F0F0F0"/>
    <path d="M397.033 174.098H35.603a15.78 15.78 0 0 1-15.76-15.76V50.935a15.778 15.778 0 0 1 15.76-15.76h361.43a15.78 15.78 0 0 1 15.76 15.76v107.403a15.781 15.781 0 0 1-15.76 15.76Z" fill="#E4E4E4"/>
    <path d="M535.911 129.063a8.5 8.5 0 0 1-2.287-.316l-76.286-21.334a8.48 8.48 0 0 1-6.161-8.013l-.595-46.385a8.44 8.44 0 0 1 5.341-7.955 8.434 8.434 0 0 1 3.323-.584l45.262 1.24a8.392 8.392 0 0 1 5.794 2.529l32.719 33.402a8.455 8.455 0 0 1 2.405 6.182l-1.103 33.078a8.441 8.441 0 0 1-8.412 8.156Z" fill="#fff"/>
    <path d="M598.917 269.054c21.088 0 38.182-17.095 38.182-38.182 0-21.088-17.094-38.183-38.182-38.183-21.087 0-38.182 17.095-38.182 38.183 0 21.087 17.095 38.182 38.182 38.182Z" fill="#3F3D56"/>
    <path d="M598.917 255.027c13.341 0 24.156-10.815 24.156-24.156s-10.815-24.156-24.156-24.156-24.156 10.815-24.156 24.156 10.815 24.156 24.156 24.156Z" fill="#fff"/>
    <path d="M162.941 269.443c21.087 0 38.182-17.095 38.182-38.182 0-21.087-17.095-38.182-38.182-38.182-21.088 0-38.182 17.095-38.182 38.182 0 21.087 17.094 38.182 38.182 38.182Z" fill="#3F3D56"/>
    <path d="M162.941 255.417c13.341 0 24.156-10.815 24.156-24.156s-10.815-24.156-24.156-24.156-24.156 10.815-24.156 24.156 10.815 24.156 24.156 24.156Z" fill="#fff"/>
    <path d="M547.099 134.748h-3.117a10.255 10.255 0 0 1-10.24-10.241V101.91a10.254 10.254 0 0 1 10.24-10.24h3.117a10.25 10.25 0 0 1 10.24 10.24v22.597a10.252 10.252 0 0 1-10.24 10.241Z" fill="#3F3D56"/>
    <path d="M222.102 95.676H39.044v4.675h183.058v-4.675Zm0 31.169H39.044v4.675h183.058v-4.675ZM89.304 165.039H76.057a5.467 5.467 0 0 1 0-10.933h13.247a5.467 5.467 0 0 1 0 10.933Zm15.584-9.933a4.466 4.466 0 1 0 0 8.933h13.247a4.463 4.463 0 0 0 3.158-1.309 4.462 4.462 0 0 0 0-6.316 4.462 4.462 0 0 0-3.158-1.308h-13.247Zm42.079 9.933H133.72a5.47 5.47 0 0 1-5.467-5.467 5.467 5.467 0 0 1 5.467-5.466h13.247a5.467 5.467 0 0 1 0 10.933Z" fill="#F0F0F0"/>
    <path d="M222.963 175.948H58.503a6.636 6.636 0 0 1 0-13.271h164.46a6.637 6.637 0 0 1 0 13.271ZM61.43 127.662h-6.334a1.993 1.993 0 0 1-1.99-1.989v-13.866a1.992 1.992 0 0 1 1.99-1.99.408.408 0 0 0 .407-.407v-2.996a2.758 2.758 0 0 1 2.76-2.76 2.759 2.759 0 0 1 2.76 2.76v2.996a.408.408 0 0 0 .406.407 1.994 1.994 0 0 1 1.99 1.99v13.866a1.988 1.988 0 0 1-1.99 1.989Zm15.132 0h-6.334a1.992 1.992 0 0 1-1.99-1.989v-13.866a1.992 1.992 0 0 1 1.99-1.99.409.409 0 0 0 .408-.407v-2.996a2.758 2.758 0 0 1 4.707-1.944c.517.515.81 1.214.812 1.944v2.996a.407.407 0 0 0 .407.407 1.994 1.994 0 0 1 1.99 1.99v13.866a1.993 1.993 0 0 1-1.99 1.989ZM173.76 98.56h-6.333a1.99 1.99 0 0 1-1.99-1.989V82.706a1.993 1.993 0 0 1 1.99-1.99.407.407 0 0 0 .407-.407v-2.996a2.759 2.759 0 0 1 5.519 0v2.996a.408.408 0 0 0 .407.407 1.991 1.991 0 0 1 1.989 1.99v13.865a1.988 1.988 0 0 1-1.989 1.99Zm15.133 0h-6.334a1.992 1.992 0 0 1-1.989-1.989V82.706a1.99 1.99 0 0 1 1.989-1.99.407.407 0 0 0 .407-.407v-2.996a2.762 2.762 0 0 1 5.52 0v2.996a.408.408 0 0 0 .407.407 1.993 1.993 0 0 1 1.989 1.99v13.865a1.992 1.992 0 0 1-1.989 1.99Zm187.445-37.649h-86.139V175.57h86.139V60.911Z" fill="#F0F0F0"/>
    <path d="M376.338 86.848h-86.139v2.328h86.139v-2.328Zm0 27.937h-86.139v2.328h86.139v-2.328Zm0 27.937h-86.139v2.328h86.139v-2.328Z" fill="#E4E4E4"/>
    <path d="M96.128 128.963h-6.47a3.379 3.379 0 0 1-3.376-3.376v-8.217a3.38 3.38 0 0 1 3.376-3.376h6.47a3.379 3.379 0 0 1 3.376 3.376v8.217a3.38 3.38 0 0 1-3.376 3.376Z" fill="#F0F0F0"/>
    <path d="M303.738 121.948a8.399 8.399 0 0 1-1.298.031.282.282 0 0 0-.311.245l-.828 6.208a2.52 2.52 0 0 1-.534 1.23 2.693 2.693 0 0 0-.603 2.048v10.545s-.054 1.406 1.027 1.406a15.66 15.66 0 0 0 3.894 0s.865-.164.865-1.461v-10.383a2.542 2.542 0 0 0-.534-2.065 2.579 2.579 0 0 1-.518-1.222l-.86-6.338a.286.286 0 0 0-.3-.244Zm10.476 0a8.396 8.396 0 0 1-1.298.031.281.281 0 0 0-.311.245l-.828 6.208a2.518 2.518 0 0 1-.533 1.23 2.68 2.68 0 0 0-.604 2.048v10.545s-.053 1.406 1.027 1.406a15.66 15.66 0 0 0 3.894 0s.865-.164.865-1.461v-10.383a2.542 2.542 0 0 0-.534-2.065 2.579 2.579 0 0 1-.518-1.222l-.859-6.338a.284.284 0 0 0-.301-.244Zm10.476 0a8.386 8.386 0 0 1-1.297.031.282.282 0 0 0-.312.245l-.827 6.208a2.52 2.52 0 0 1-.534 1.23 2.68 2.68 0 0 0-.603 2.048v10.545s-.054 1.406 1.026 1.406a15.66 15.66 0 0 0 3.894 0s.865-.164.865-1.461v-10.383a2.542 2.542 0 0 0-.534-2.065 2.577 2.577 0 0 1-.517-1.222l-.86-6.338a.282.282 0 0 0-.301-.244Zm-20.952-27.937a8.424 8.424 0 0 1-1.298.03.283.283 0 0 0-.311.246l-.828 6.208a2.52 2.52 0 0 1-.534 1.229 2.698 2.698 0 0 0-.603 2.049v10.545s-.054 1.406 1.027 1.406a15.66 15.66 0 0 0 3.894 0s.865-.164.865-1.461V103.88a2.542 2.542 0 0 0-.534-2.065 2.583 2.583 0 0 1-.518-1.222l-.86-6.338a.283.283 0 0 0-.3-.244Zm10.476 0a8.42 8.42 0 0 1-1.298.03.282.282 0 0 0-.311.246l-.828 6.208c-.063.45-.248.875-.533 1.229a2.684 2.684 0 0 0-.604 2.049v10.545s-.053 1.406 1.027 1.406a15.66 15.66 0 0 0 3.894 0s.865-.164.865-1.461V103.88a2.542 2.542 0 0 0-.534-2.065 2.583 2.583 0 0 1-.518-1.222l-.859-6.338a.285.285 0 0 0-.301-.244Zm10.476 0a8.41 8.41 0 0 1-1.297.03.283.283 0 0 0-.312.246l-.827 6.208a2.52 2.52 0 0 1-.534 1.229 2.684 2.684 0 0 0-.603 2.049v10.545s-.054 1.406 1.026 1.406a15.66 15.66 0 0 0 3.894 0s.865-.164.865-1.461V103.88a2.542 2.542 0 0 0-.534-2.065 2.581 2.581 0 0 1-.517-1.222l-.86-6.338a.283.283 0 0 0-.301-.244Zm21.535 0a8.41 8.41 0 0 1-1.297.03.283.283 0 0 0-.312.246l-.827 6.208a2.53 2.53 0 0 1-.534 1.229 2.684 2.684 0 0 0-.604 2.049v10.545s-.053 1.406 1.027 1.406a15.66 15.66 0 0 0 3.894 0s.865-.164.865-1.461V103.88a2.526 2.526 0 0 0-.04-1.091 2.527 2.527 0 0 0-.494-.974 2.593 2.593 0 0 1-.518-1.222l-.859-6.338a.283.283 0 0 0-.301-.244Zm10.477 0a8.42 8.42 0 0 1-1.298.03.282.282 0 0 0-.311.246l-.828 6.208a2.51 2.51 0 0 1-.534 1.229 2.698 2.698 0 0 0-.603 2.049v10.545s-.053 1.406 1.027 1.406a15.66 15.66 0 0 0 3.894 0s.865-.164.865-1.461V103.88a2.542 2.542 0 0 0-.534-2.065 2.583 2.583 0 0 1-.518-1.222l-.86-6.338a.283.283 0 0 0-.3-.244Zm10.476 0a8.41 8.41 0 0 1-1.297.03.283.283 0 0 0-.312.246l-.827 6.208a2.53 2.53 0 0 1-.534 1.229 2.684 2.684 0 0 0-.604 2.049v10.545s-.053 1.406 1.027 1.406a15.66 15.66 0 0 0 3.894 0s.865-.164.865-1.461V103.88a2.526 2.526 0 0 0-.04-1.091 2.527 2.527 0 0 0-.494-.974 2.593 2.593 0 0 1-.518-1.222l-.859-6.338a.284.284 0 0 0-.301-.244ZM321.78 66.656a8.423 8.423 0 0 1-1.297.03.282.282 0 0 0-.312.246l-.827 6.208c-.064.45-.248.875-.534 1.23a2.678 2.678 0 0 0-.603 2.048v10.545s-.054 1.406 1.027 1.406a15.66 15.66 0 0 0 3.894 0s.864-.164.864-1.461V76.525a2.542 2.542 0 0 0-.533-2.065 2.574 2.574 0 0 1-.518-1.222l-.86-6.338a.283.283 0 0 0-.301-.244Zm10.477 0a8.433 8.433 0 0 1-1.298.03.284.284 0 0 0-.311.246l-.828 6.208c-.064.45-.248.875-.534 1.23a2.691 2.691 0 0 0-.603 2.048v10.545s-.053 1.406 1.027 1.406a15.66 15.66 0 0 0 3.894 0s.865-.164.865-1.461V76.525a2.542 2.542 0 0 0-.534-2.065 2.584 2.584 0 0 1-.518-1.222l-.86-6.338a.283.283 0 0 0-.3-.244Zm10.476 0a8.423 8.423 0 0 1-1.297.03.282.282 0 0 0-.312.246l-.828 6.208a2.52 2.52 0 0 1-.533 1.23 2.678 2.678 0 0 0-.604 2.048v10.545s-.053 1.406 1.027 1.406a15.66 15.66 0 0 0 3.894 0s.865-.164.865-1.461V76.525a2.542 2.542 0 0 0-.534-2.064 2.584 2.584 0 0 1-.518-1.223l-.859-6.338a.284.284 0 0 0-.301-.244Z" fill="#E4E4E4"/>
    <path d="M671 270.111H-50a.998.998 0 0 1-1-1 1.001 1.001 0 0 1 1-1h721a1.002 1.002 0 0 1 .707 1.707.997.997 0 0 1-.707.293Z" fill="#CACACA"/>
    <path d="M438.93 322.213a5.427 5.427 0 0 0 2.36-3.927 5.413 5.413 0 0 0-1.495-4.331l8.672-17.178-9.933 1.152-6.713 16.136a5.442 5.442 0 0 0 3.348 9.052 5.449 5.449 0 0 0 3.761-.904Zm69.549 121.679-7.815-.001-3.719-30.145h11.535l-.001 30.146Z" fill="#FFB7B7"/>
    <path d="m510.472 451.468-25.2-.001v-.319a9.809 9.809 0 0 1 9.808-9.809l15.393.001-.001 10.128Z" fill="#2F2E41"/>
    <path d="m465.767 443.892-7.815-.001-3.718-30.145h11.534l-.001 30.146Z" fill="#FFB7B7"/>
    <path d="m465.848 451.468-25.201-.001v-.319a9.813 9.813 0 0 1 9.809-9.809l15.392.001v10.128Zm-.721-134.897-7.65 17.624-6.31 101.297 15.937-.638 4.353-48.288 13.427-43.01 7.719 47.949 3.188 42.074 13.187.571 5.255-117.579h-49.106Z" fill="#2F2E41"/>
    <path d="m503.366 229.607-22.172.554-13.017 6.683-.714 49.302-8.119 34.039s50.726 3.491 57.738-1.609l-8.287-38.887 11.115-42.026-16.544-8.056Z" fill="#421F1F"/>
    <path d="m471.601 237.661-2.064-1.394s-8.551 2.563-11.079 13.965c0 0-1.934 5.721-2.782 9.654-.974 4.511-22.467 45.948-22.467 45.948l12.869 3.691 23.592-38.153 1.931-33.711Z" fill="#421F1F"/>
    <path d="M519.563 328.535a5.408 5.408 0 0 1-.287-6.593 5.424 5.424 0 0 1 1.732-1.584l-3.599-18.903 9.231 3.847 2.002 17.361a5.442 5.442 0 0 1-1.932 6.968 5.442 5.442 0 0 1-7.147-1.096Z" fill="#FFB7B7"/>
    <path d="m516.574 238.252 2.368-.771s7.513 4.822 6.798 16.479c0 0 .282 6.032.013 10.047-.308 4.604 3.825 50.361 3.825 50.361h-13.387l-5.738-41.437 6.121-34.679Z" fill="#421F1F"/>
    <path d="M508.809 208.922a15.373 15.373 0 0 1-26.238 10.869 15.372 15.372 0 0 1 2.329-23.648 15.37 15.37 0 0 1 8.539-2.59 15.33 15.33 0 0 1 15.37 15.293v.076Z" fill="#FFB7B7"/>
    <path d="M478.12 188.278c1.801-3.872 5.285-3.106 8.332-1.794 3.859-.856 7.529-3.419 11.687-1.903 4.096 5.957 17.846 4.204 14.921 13.902-.004 2.324 4.372.971 3.608 4.777 2.319 7.324-8.368 21.195-14.503 18.274 1.517-2.781 4.983-9.097-.274-9.723-11.308 10.522-1.166-20.037-15.375-11.15-4.705 4.306-11.146-8.076-8.396-12.383Z" fill="#2F2E41"/>
    <path d="M420.36 275.807a5.794 5.794 0 0 0-.589.71l-27.586-.675-3.219-5.881-9.509 3.697 4.685 10.964a4.455 4.455 0 0 0 4.627 2.67l31.168-3.765a5.839 5.839 0 0 0 10.415-3.3 5.838 5.838 0 0 0-3.469-5.662 5.846 5.846 0 0 0-6.523 1.242Zm-89.927 167.535h9.07l4.315-34.987-13.387.001.002 34.986Z" fill="#9F616A"/>
    <path d="m328.119 440.381 17.863-.001a11.385 11.385 0 0 1 11.385 11.384v.37l-29.248.001v-11.754Z" fill="#2F2E41"/>
    <path d="m412.797 443.14 8.341-3.563-9.775-33.869-12.311 5.259 13.745 32.173Z" fill="#9F616A"/>
    <path d="m409.506 441.326 16.427-7.018a11.386 11.386 0 0 1 14.941 5.997l.145.34-26.896 11.49-4.617-10.809Z" fill="#2F2E41"/>
    <path d="m374.522 283.386.656 10.629-19.173 2.052-20.062 2.147 5.905-16.14 32.674 1.312Z" fill="#9F616A"/>
    <path d="M375.195 287.2c-.217-.085-21.873-8.509-35.174-1.621l-.328.169-2.653-13.061-1.512-28.082 9.839-4.649 2.709-6.068 18.452-1.092 3.792 5.2 12.91 4.231-7.716 45.099-.319-.126Z" fill="#3F3D56"/>
    <path d="m375.874 261.853 2.282-17.933 5.197-1.582.087.032a6.54 6.54 0 0 1 3.718 5.035c.742 3.754 6.331 27.109 6.387 27.345l.056.233-13.131 5.254-4.596-18.384Z" fill="#3F3D56"/>
    <path d="m406.041 436.992 17.48-3.586-27.938-77.092-9.562-26.295s-6.065-21.083-8.805-29.242l-1.653-10.947-39.144 4.332s-10.932 16.056-7.611 42.226l-1.502 98.362 17.48.897 14.641-99.204 25.698 54.383s8.099 23.207 13.894 28.237l7.022 17.929Zm-34.558-208.404h-31.341a2.436 2.436 0 0 1-2.432-2.431v-13.509a18.106 18.106 0 0 1 18.102-18.102 18.101 18.101 0 0 1 18.102 18.102v13.509a2.435 2.435 0 0 1-2.431 2.431Z" fill="#2F2E41"/>
    <path d="M359.532 228.274c7.33 0 13.272-5.942 13.272-13.272s-5.942-13.272-13.272-13.272-13.272 5.942-13.272 13.272 5.942 13.272 13.272 13.272Z" fill="#9F616A"/>
    <path d="M378.197 213.998h-19.164l-.197-2.751-.982 2.751h-2.951l-.39-5.453-1.947 5.453h-5.71v-.27a14.33 14.33 0 0 1 4.199-10.12 14.33 14.33 0 0 1 10.12-4.199h2.702a14.333 14.333 0 0 1 14.32 14.319v.27Z" fill="#2F2E41"/>
    <path d="M358.876 231.11c-.144 0-.288-.013-.43-.038l-14.033-2.476v-23.192h15.447l-.382.446c-5.321 6.205-1.313 16.268 1.551 21.714a2.39 2.39 0 0 1-.191 2.543 2.417 2.417 0 0 1-1.962 1.003Z" fill="#2F2E41"/>
    <path d="M435.648 273.506a17.01 17.01 0 0 1-2.632.061.576.576 0 0 0-.632.499l-1.68 12.597a5.11 5.11 0 0 1-1.083 2.495 5.43 5.43 0 0 0-1.224 4.157v21.398s-.109 2.853 2.083 2.853c2.624.33 5.279.33 7.902 0 0 0 1.755-.332 1.755-2.965v-21.069a5.153 5.153 0 0 0-1.083-4.19 5.242 5.242 0 0 1-1.051-2.481l-1.744-12.86a.57.57 0 0 0-.208-.368.57.57 0 0 0-.403-.127Z" fill="#fff"/>
    <path d="M434.424 318.174c-1.326 0-2.651-.083-3.967-.247a2.136 2.136 0 0 1-1.581-.647 3.942 3.942 0 0 1-.84-2.581v-21.362a5.803 5.803 0 0 1 1.308-4.41 4.753 4.753 0 0 0 1.003-2.315l1.679-12.594a.941.941 0 0 1 1.029-.81c.853.045 1.708.025 2.557-.061l.01-.001a.935.935 0 0 1 .995.806l1.744 12.861c.12.841.457 1.636.978 2.308a5.5 5.5 0 0 1 1.16 4.443v21.037c0 2.898-2.029 3.316-2.049 3.32-1.336.168-2.68.253-4.026.253Zm-1.457-44.248a.219.219 0 0 0-.225.185l-1.68 12.599a5.48 5.48 0 0 1-1.16 2.675 5.09 5.09 0 0 0-1.147 3.885l.003.045v21.398a3.274 3.274 0 0 0 .64 2.068 1.425 1.425 0 0 0 1.083.424l.045.003a31.41 31.41 0 0 0 7.811 0c.035-.009 1.439-.329 1.439-2.607l.006-21.134a4.785 4.785 0 0 0-1.007-3.896 5.613 5.613 0 0 1-1.129-2.659l-1.745-12.863a.217.217 0 0 0-.076-.135.216.216 0 0 0-.147-.048 17.53 17.53 0 0 1-2.682.062l-.029-.002Z" fill="#3F3D56"/>
    <path d="M435.659 293.698h-2.662a3.99 3.99 0 0 0-3.99 3.99v10.015a3.991 3.991 0 0 0 3.99 3.991h2.662a3.991 3.991 0 0 0 3.991-3.991v-10.015a3.99 3.99 0 0 0-3.991-3.99Z" fill="#421F1F"/>
    <path d="M421.34 251.135c-.875.088-1.755.109-2.633.061a.576.576 0 0 0-.632.499l-1.68 12.597a5.11 5.11 0 0 1-1.083 2.495 5.445 5.445 0 0 0-1.224 4.157v21.398s-.109 2.853 2.083 2.853c2.624.33 5.279.33 7.902 0 0 0 1.756-.332 1.756-2.965v-21.069a5.17 5.17 0 0 0-1.084-4.19 5.242 5.242 0 0 1-1.051-2.481l-1.744-12.86a.575.575 0 0 0-.61-.495Z" fill="#fff"/>
    <path d="M420.115 295.803c-1.326 0-2.651-.082-3.967-.247a2.136 2.136 0 0 1-1.581-.647 3.942 3.942 0 0 1-.84-2.581l-.001-21.362a5.82 5.82 0 0 1 1.309-4.41 4.753 4.753 0 0 0 1.003-2.315l1.679-12.594a.937.937 0 0 1 1.029-.809c.853.045 1.708.024 2.557-.062l.01-.001a.936.936 0 0 1 .995.806l1.744 12.861a4.89 4.89 0 0 0 .978 2.308 5.497 5.497 0 0 1 1.16 4.443v21.037c0 2.899-2.029 3.316-2.05 3.32a32.234 32.234 0 0 1-4.025.253Zm-1.457-44.247a.214.214 0 0 0-.148.049.214.214 0 0 0-.077.135l-1.68 12.6a5.48 5.48 0 0 1-1.16 2.674 5.09 5.09 0 0 0-1.147 3.886l.003.044v21.398a3.274 3.274 0 0 0 .64 2.068c.14.143.309.254.496.327.186.074.386.107.586.097l.046.003a31.41 31.41 0 0 0 7.811 0c.035-.009 1.439-.329 1.439-2.607l.006-21.134a4.785 4.785 0 0 0-1.007-3.896 5.613 5.613 0 0 1-1.129-2.659l-1.745-12.863a.218.218 0 0 0-.223-.183 17.53 17.53 0 0 1-2.682.062l-.029-.001Z" fill="#3F3D56"/>
    <path d="M421.35 271.327h-2.661a3.991 3.991 0 0 0-3.991 3.991v10.014a3.991 3.991 0 0 0 3.991 3.991h2.661a3.991 3.991 0 0 0 3.991-3.991v-10.014a3.991 3.991 0 0 0-3.991-3.991Z" fill="#421F1F"/>
    <path d="M372.923 299.963h-12.42a4.344 4.344 0 0 1-4.347-4.347 4.348 4.348 0 0 1 4.347-4.347h12.42a4.347 4.347 0 0 1 0 8.694Z" fill="#E4E4E4"/>
    <path d="M377.269 297.479h-21.113a2.487 2.487 0 0 1-2.471-2.484 2.483 2.483 0 0 1 2.471-2.484h21.113a2.48 2.48 0 0 1 2.307 1.53 2.477 2.477 0 0 1-.542 2.715 2.476 2.476 0 0 1-1.765.723Z" fill="#CACACA"/>
    <path d="M374.763 308.067H358.31a6.787 6.787 0 0 1-6.78-6.789 6.791 6.791 0 0 1 6.78-6.789h16.453a6.789 6.789 0 1 1 0 13.578Z" fill="#E4E4E4"/>
    <path d="M352.117 297.813a5.906 5.906 0 0 0-.921.051l-18.262-20.688 2.125-6.358-9.177-4.46-4.855 10.89a4.456 4.456 0 0 0 1.189 5.209l23.952 20.295a5.837 5.837 0 0 0 6.286 6.717 5.842 5.842 0 0 0 5.008-7.717 5.843 5.843 0 0 0-5.345-3.939Z" fill="#9F616A"/>
    <path d="m324.229 269.422 7.139-20.334c.802-2.398 1.807-3.854 2.988-4.329a1.843 1.843 0 0 1 1.482-.014l3.201 4.045 2.971 12.481-7.618 17.918-10.163-9.767Z" fill="#3F3D56"/>
    <path d="M586 453.111H205a.997.997 0 0 1-1-1 1 1 0 0 1 1-1h381a1.002 1.002 0 0 1 .707 1.707.997.997 0 0 1-.707.293Zm-154.02-389.5H11.493a6.5 6.5 0 0 1-6.062-8.846L26.394.61h390.685l20.963 54.154a6.502 6.502 0 0 1-3.031 8.097 6.503 6.503 0 0 1-3.031.75Z" fill="#CACACA"/>
  </g>
  <defs>
    <clipPath id="a">
      <path fill="#fff" d="M-212 0h884v453.111h-884z"/>
    </clipPath>
  </defs>
</svg>
